<svg width="64" height="64" viewBox="0 0 64 64" fill="none" xmlns="http://www.w3.org/2000/svg">
<rect width="64" height="64" rx="10" fill="#343A40"/>
<path d="M7.96271 46C7.68271 46 7.44471 45.902 7.24871 45.706C7.05271 45.51 6.95471 45.272 6.95471 44.992V17.65C6.95471 17.342 7.03871 17.09 7.20671 16.894C7.40271 16.698 7.65471 16.6 7.96271 16.6H11.1967C11.5327 16.6 11.7847 16.67 11.9527 16.81C12.1207 16.922 12.2747 17.076 12.4147 17.272L24.5107 36.088V17.65C24.5107 17.342 24.5947 17.09 24.7627 16.894C24.9587 16.698 25.2107 16.6 25.5187 16.6H29.0467C29.3547 16.6 29.6067 16.698 29.8027 16.894C29.9987 17.09 30.0967 17.342 30.0967 17.65V44.95C30.0967 45.258 29.9987 45.51 29.8027 45.706C29.6067 45.902 29.3687 46 29.0887 46H25.8127C25.3367 46 24.9307 45.776 24.5947 45.328L12.5407 26.932V44.992C12.5407 45.3 12.4427 45.552 12.2467 45.748C12.0507 45.916 11.7987 46 11.4907 46H7.96271ZM46.856 46.42C44.364 46.42 42.222 46.042 40.43 45.286C38.638 44.53 37.28 43.536 36.356 42.304C35.432 41.072 34.942 39.742 34.886 38.314C34.886 38.062 34.97 37.852 35.138 37.684C35.306 37.516 35.516 37.432 35.768 37.432H39.506C39.842 37.432 40.094 37.502 40.262 37.642C40.458 37.754 40.64 37.95 40.808 38.23C41.088 39.182 41.732 39.98 42.74 40.624C43.748 41.268 45.12 41.59 46.856 41.59C48.844 41.59 50.342 41.268 51.35 40.624C52.358 39.952 52.862 39.028 52.862 37.852C52.862 37.068 52.596 36.424 52.064 35.92C51.56 35.416 50.79 34.982 49.754 34.618C48.746 34.254 47.234 33.806 45.218 33.274C41.914 32.49 39.492 31.454 37.952 30.166C36.44 28.85 35.684 26.988 35.684 24.58C35.684 22.956 36.118 21.514 36.986 20.254C37.882 18.994 39.156 18 40.808 17.272C42.488 16.544 44.434 16.18 46.646 16.18C48.942 16.18 50.93 16.586 52.61 17.398C54.29 18.21 55.564 19.232 56.432 20.464C57.328 21.668 57.804 22.872 57.86 24.076C57.86 24.328 57.776 24.538 57.608 24.706C57.44 24.874 57.23 24.958 56.978 24.958H53.072C52.484 24.958 52.078 24.692 51.854 24.16C51.686 23.264 51.126 22.522 50.174 21.934C49.222 21.318 48.046 21.01 46.646 21.01C45.078 21.01 43.846 21.304 42.95 21.892C42.054 22.48 41.606 23.334 41.606 24.454C41.606 25.238 41.83 25.882 42.278 26.386C42.726 26.89 43.426 27.338 44.378 27.73C45.358 28.122 46.758 28.556 48.578 29.032C51.042 29.592 53.002 30.222 54.458 30.922C55.942 31.622 57.034 32.504 57.734 33.568C58.434 34.632 58.784 35.99 58.784 37.642C58.784 39.434 58.28 41.002 57.272 42.346C56.292 43.662 54.892 44.67 53.072 45.37C51.28 46.07 49.208 46.42 46.856 46.42Z" fill="white"/>
</svg>
